<?xml version="1.0" encoding="iso-8859-1"?>
<!-- Generator: Adobe Illustrator 19.0.0, SVG Export Plug-In . SVG Version: 6.00 Build 0)  -->
<svg version="1.1" id="Capa_1" xmlns="http://www.w3.org/2000/svg" xmlns:xlink="http://www.w3.org/1999/xlink" x="0px" y="0px"
	 viewBox="0 0 512 512" style="enable-background:new 0 0 512 512;" xml:space="preserve">
<rect x="279.758" y="383.955" style="fill:#F94248;" width="232.215" height="94.417"/>
<rect x="279.758" y="383.955" style="fill:#BB3236;" width="136.126" height="94.417"/>
<g>
	<circle style="fill:#FED96C;" cx="231.714" cy="255.836" r="224.207"/>
	<circle style="fill:#FED96C;" cx="231.714" cy="255.836" r="224.207"/>
</g>
<path style="fill:#FDC00A;" d="M105.206,414.372c-87.559-87.558-87.559-229.518,0-317.077
	c39.704-39.704,90.593-61.402,142.524-65.098c-62.593-4.455-126.698,17.244-174.553,65.098c-87.559,87.558-87.559,229.518,0,317.077
	c47.855,47.855,111.96,69.553,174.553,65.098C195.799,475.773,144.909,454.075,105.206,414.372z"/>
<circle style="fill:#B8BFC9;" cx="231.714" cy="255.836" r="192.178"/>
<path style="fill:#94A0AD;" d="M127.854,391.723c-75.05-75.05-75.05-196.73,0-271.78c33.448-33.448,76.159-51.975,119.876-55.609
	c-54.374-4.519-110.303,14.008-151.905,55.609c-75.05,75.05-75.05,196.73,0,271.78c41.602,41.602,97.531,60.13,151.905,55.609
	C204.013,443.699,161.302,425.172,127.854,391.723z"/>
<g>
	<path style="fill:#F94248;" d="M231.715,143.73c-13.22,0-25.906,2.288-37.682,6.491c5.553,17.567,20.326,33.546,37.682,33.546
		s32.13-15.98,37.682-33.546C257.62,146.018,244.935,143.73,231.715,143.73z"/>
	<path style="fill:#F94248;" d="M269.397,361.446c-5.553-17.567-20.326-33.546-37.682-33.546c-17.357,0-32.13,15.98-37.682,33.546
		c11.777,4.202,24.463,6.491,37.682,6.491S257.62,365.649,269.397,361.446z"/>
</g>
<path style="fill:#FED96C;" d="M269.397,361.446c-11.777,4.202-24.463,6.491-37.682,6.491s-25.906-2.288-37.682-6.491
	c-1.521,4.812-2.355,9.743-2.355,14.498c0,22.111,17.926,40.037,40.037,40.037s40.037-17.926,40.037-40.037
	C271.752,371.189,270.918,366.258,269.397,361.446z"/>
<circle style="fill:#F94248;" cx="231.714" cy="255.836" r="40.037"/>
<path style="fill:#FED96C;" d="M269.397,150.221c1.521-4.812,2.355-9.743,2.355-14.498c0-22.111-17.926-40.037-40.037-40.037
	s-40.037,17.926-40.037,40.037c0,4.754,0.834,9.686,2.355,14.498c11.777-4.202,24.462-6.491,37.682-6.491
	C244.935,143.73,257.62,146.018,269.397,150.221z"/>
<path style="fill:#F94248;" d="M337.327,218.15c-17.567,5.553-33.546,20.326-33.546,37.682s15.98,32.13,33.546,37.682
	c4.202-11.777,6.491-24.462,6.491-37.682C343.818,242.612,341.529,229.927,337.327,218.15z"/>
<g>
	<path style="fill:#FED96C;" d="M351.826,215.796c-4.754,0-9.686,0.834-14.498,2.355c4.202,11.777,6.491,24.462,6.491,37.682
		s-2.288,25.906-6.491,37.682c4.812,1.521,9.743,2.355,14.498,2.355c22.111,0,40.037-17.926,40.037-40.037
		S373.937,215.796,351.826,215.796z"/>
	<path style="fill:#FED96C;" d="M126.101,218.15c-4.812-1.521-9.743-2.355-14.498-2.355c-22.111,0-40.037,17.926-40.037,40.037
		s17.926,40.037,40.037,40.037c4.754,0,9.686-0.834,14.498-2.355c-4.202-11.777-6.491-24.462-6.491-37.682
		C119.61,242.612,121.899,229.927,126.101,218.15z"/>
</g>
<path style="fill:#F94248;" d="M159.648,255.833c0-17.357-15.98-32.13-33.546-37.682c-4.202,11.777-6.491,24.462-6.491,37.682
	s2.288,25.906,6.491,37.682C143.668,287.963,159.648,273.19,159.648,255.833z"/>
<rect x="431.899" y="400.47" width="16.015" height="15.014"/>
<rect x="463.928" y="400.47" style="fill:#FFFFFF;" width="16.015" height="15.014"/>
<rect x="495.958" y="400.47" width="16.015" height="15.014"/>
<rect x="431.899" y="448.514" width="16.015" height="15.014"/>
<rect x="399.869" y="448.514" style="fill:#FFFFFF;" width="16.015" height="15.014"/>
<rect x="367.84" y="448.514" width="16.015" height="15.014"/>
<rect x="463.928" y="448.514" style="fill:#FFFFFF;" width="16.015" height="15.014"/>
<rect x="495.958" y="448.514" width="16.015" height="15.014"/>
<path d="M231.715,455.518c-110.107,0-199.684-89.578-199.684-199.684S121.608,56.149,231.715,56.149s199.684,89.578,199.684,199.684
	S341.822,455.518,231.715,455.518z M231.715,71.163c-101.827,0-184.671,82.844-184.671,184.671s82.844,184.671,184.671,184.671
	s184.671-82.844,184.671-184.671S333.542,71.163,231.715,71.163z"/>
<path d="M61.512,413.072C20.77,369.031-1.062,311.672,0.04,251.564c1.104-60.27,25.192-116.942,67.829-159.578
	s99.309-66.725,159.578-67.829c60.092-1.091,117.465,20.729,161.507,61.472l-10.195,11.022
	c-40.191-37.18-92.252-57.52-146.985-57.52c-1.352,0-2.697,0.013-4.054,0.037c-56.362,1.034-109.362,23.562-149.235,63.436
	c-39.874,39.873-62.402,92.873-63.435,149.236c-1.029,56.214,19.385,109.854,57.483,151.038L61.512,413.072z"/>
<path d="M395.561,419.68c8.829-8.829,16.85-18.268,24.048-28.208l92.337,0.32L512,376.778l-82.397-0.286
	c21.269-34.779,33.023-74.723,33.786-116.391c1.102-60.108-20.73-117.466-61.472-161.507l-11.022,10.195
	c38.098,41.184,58.512,94.824,57.483,151.038c-1.033,56.363-23.561,109.363-63.435,149.236
	c-40.657,40.658-94.711,63.198-152.204,63.469c-57.435,0.236-111.677-21.716-152.684-61.911l-10.51,10.723
	c41.674,40.85,96.113,64.096,154.151,66.054v0.151l288.266,0.333l0.018-15.014l-198.214-0.229
	C344.118,461.166,371.954,443.286,395.561,419.68z"/>
<path d="M231.715,303.377c-26.215,0-47.544-21.329-47.544-47.544s21.329-47.544,47.544-47.544c26.215,0,47.544,21.329,47.544,47.544
	S257.93,303.377,231.715,303.377z M231.715,223.303c-17.938,0-32.53,14.592-32.53,32.53s14.592,32.53,32.53,32.53
	s32.53-14.592,32.53-32.53S249.652,223.303,231.715,223.303z"/>
<path d="M279.259,135.722c0-26.215-21.329-47.544-47.544-47.544s-47.544,21.329-47.544,47.544c0,3.182,0.32,6.43,0.936,9.712
	l-0.413,0.147l2.181,6.901l2.347,7.425l0.451-0.161c3.347,7.341,8.04,14.024,13.622,19.293c8.477,8.003,18.304,12.234,28.421,12.234
	s19.944-4.231,28.421-12.234c5.58-5.269,10.275-11.952,13.622-19.293l0.451,0.161l2.347-7.425l2.181-6.901l-0.413-0.147
	C278.938,142.152,279.259,138.904,279.259,135.722z M231.715,103.192c17.938,0,32.53,14.592,32.53,32.53
	c0,1.596-0.112,3.227-0.336,4.884c-0.353-0.098-0.711-0.182-1.064-0.277c-0.51-0.137-1.023-0.269-1.535-0.4
	c-1.053-0.268-2.109-0.52-3.169-0.76c-0.484-0.109-0.968-0.223-1.454-0.326c-1.368-0.29-2.741-0.559-4.119-0.801
	c-0.156-0.028-0.311-0.061-0.467-0.088c-1.529-0.262-3.066-0.489-4.607-0.693c-0.463-0.061-0.929-0.11-1.393-0.165
	c-1.101-0.132-2.203-0.251-3.309-0.353c-0.538-0.05-1.077-0.094-1.615-0.136c-1.095-0.086-2.193-0.154-3.292-0.21
	c-0.486-0.025-0.971-0.055-1.457-0.073c-1.566-0.061-3.136-0.1-4.71-0.1s-3.144,0.039-4.71,0.1
	c-0.486,0.019-0.972,0.049-1.457,0.073c-1.1,0.056-2.197,0.124-3.292,0.209c-0.54,0.042-1.078,0.087-1.617,0.137
	c-1.106,0.101-2.208,0.221-3.309,0.353c-0.464,0.055-0.93,0.104-1.393,0.165c-1.54,0.203-3.077,0.429-4.607,0.693
	c-0.156,0.027-0.311,0.061-0.467,0.088c-1.378,0.242-2.751,0.51-4.119,0.801c-0.486,0.103-0.97,0.217-1.455,0.326
	c-1.059,0.239-2.116,0.49-3.169,0.76c-0.512,0.13-1.024,0.262-1.535,0.4c-0.354,0.095-0.711,0.179-1.064,0.277
	c-0.224-1.657-0.336-3.287-0.336-4.884C199.185,117.785,213.777,103.192,231.715,103.192z M231.715,176.26
	c-9.281,0-20.961-7.283-27.745-21.288c0.217-0.06,0.432-0.127,0.651-0.186c0.431-0.115,0.866-0.223,1.298-0.333
	c0.911-0.231,1.825-0.45,2.741-0.657c0.444-0.1,0.889-0.201,1.335-0.295c1.041-0.219,2.086-0.421,3.133-0.61
	c0.291-0.052,0.58-0.112,0.871-0.162c1.327-0.226,2.66-0.425,3.998-0.601c0.356-0.047,0.714-0.082,1.071-0.125
	c1.003-0.121,2.008-0.229,3.016-0.321c0.458-0.042,0.918-0.079,1.377-0.115c0.96-0.075,1.923-0.135,2.887-0.184
	c0.422-0.021,0.844-0.047,1.266-0.063c1.364-0.052,2.732-0.086,4.102-0.086s2.738,0.034,4.102,0.086
	c0.422,0.016,0.844,0.042,1.266,0.063c0.964,0.049,1.927,0.109,2.887,0.184c0.459,0.036,0.919,0.073,1.377,0.115
	c1.008,0.092,2.013,0.2,3.016,0.321c0.356,0.043,0.715,0.079,1.071,0.125c1.337,0.175,2.67,0.374,3.998,0.601
	c0.291,0.05,0.581,0.11,0.871,0.162c1.048,0.188,2.092,0.389,3.133,0.61c0.446,0.094,0.891,0.195,1.335,0.295
	c0.917,0.206,1.83,0.425,2.741,0.657c0.433,0.11,0.867,0.217,1.298,0.333c0.218,0.058,0.432,0.126,0.651,0.186
	C252.676,168.977,240.994,176.26,231.715,176.26z"/>
<path d="M278.323,366.232l0.413-0.147l-2.181-6.901l-2.347-7.425l-0.451,0.161c-3.347-7.341-8.04-14.024-13.622-19.293
	c-8.477-8.003-18.304-12.234-28.421-12.234c-10.117,0-19.944,4.231-28.421,12.234c-5.58,5.269-10.274,11.952-13.622,19.293
	l-0.451-0.161l-2.347,7.425l-2.181,6.901l0.413,0.147c-0.616,3.283-0.936,6.531-0.936,9.712c0,26.215,21.329,47.544,47.544,47.544
	s47.544-21.329,47.544-47.544C279.259,372.762,278.938,369.514,278.323,366.232z M231.715,335.407
	c9.281,0,20.961,7.283,27.745,21.288c-0.217,0.06-0.432,0.127-0.651,0.186c-0.431,0.115-0.866,0.223-1.298,0.333
	c-0.911,0.231-1.825,0.45-2.741,0.657c-0.444,0.1-0.889,0.201-1.335,0.295c-1.041,0.219-2.086,0.421-3.133,0.61
	c-0.291,0.052-0.58,0.112-0.871,0.162c-1.327,0.226-2.66,0.425-3.998,0.601c-0.356,0.047-0.714,0.082-1.071,0.125
	c-1.003,0.121-2.008,0.229-3.016,0.321c-0.458,0.042-0.918,0.079-1.377,0.115c-0.96,0.075-1.923,0.135-2.887,0.184
	c-0.422,0.021-0.844,0.047-1.266,0.063c-1.364,0.052-2.732,0.086-4.102,0.086s-2.738-0.034-4.102-0.086
	c-0.422-0.016-0.844-0.042-1.266-0.063c-0.964-0.049-1.927-0.109-2.887-0.184c-0.459-0.036-0.919-0.073-1.377-0.115
	c-1.008-0.092-2.013-0.2-3.016-0.321c-0.356-0.043-0.715-0.079-1.071-0.125c-1.337-0.175-2.67-0.374-3.998-0.601
	c-0.291-0.05-0.581-0.11-0.871-0.162c-1.048-0.188-2.092-0.389-3.133-0.61c-0.446-0.094-0.891-0.195-1.335-0.295
	c-0.917-0.206-1.83-0.425-2.741-0.657c-0.433-0.11-0.867-0.217-1.298-0.333c-0.218-0.058-0.432-0.126-0.651-0.186
	C210.753,342.689,222.434,335.407,231.715,335.407z M231.715,408.474c-17.938,0-32.53-14.592-32.53-32.53
	c0-1.596,0.112-3.227,0.336-4.884c0.353,0.098,0.711,0.182,1.064,0.277c0.51,0.137,1.023,0.269,1.535,0.4
	c1.052,0.268,2.108,0.519,3.167,0.759c0.486,0.11,0.971,0.223,1.458,0.327c1.366,0.29,2.739,0.559,4.115,0.801
	c0.156,0.028,0.312,0.062,0.468,0.088c1.529,0.262,3.066,0.489,4.606,0.693c0.463,0.061,0.929,0.11,1.393,0.165
	c1.1,0.132,2.203,0.251,3.308,0.353c0.54,0.049,1.079,0.094,1.618,0.137c1.094,0.085,2.19,0.154,3.288,0.209
	c0.486,0.025,0.973,0.055,1.46,0.074c1.566,0.061,3.136,0.1,4.71,0.1s3.144-0.039,4.71-0.1c0.487-0.019,0.974-0.049,1.46-0.074
	c1.098-0.056,2.194-0.124,3.288-0.209c0.54-0.042,1.08-0.087,1.618-0.137c1.105-0.101,2.208-0.221,3.308-0.353
	c0.464-0.055,0.93-0.104,1.393-0.165c1.54-0.203,3.077-0.429,4.607-0.693c0.156-0.027,0.312-0.061,0.468-0.088
	c1.377-0.242,2.749-0.51,4.116-0.801c0.487-0.104,0.972-0.217,1.458-0.327c1.059-0.239,2.115-0.49,3.167-0.759
	c0.512-0.13,1.024-0.262,1.535-0.4c0.354-0.095,0.711-0.179,1.064-0.277c0.224,1.657,0.336,3.287,0.336,4.884
	C264.245,393.882,249.652,408.474,231.715,408.474z"/>
<path d="M351.826,208.289c-3.182,0-6.43,0.32-9.712,0.936l-0.147-0.413l-6.901,2.181l-7.425,2.347l0.161,0.451
	c-7.341,3.347-14.024,8.04-19.293,13.622c-8.003,8.477-12.234,18.304-12.234,28.421c0,10.117,4.231,19.944,12.234,28.421
	c5.269,5.58,11.952,10.275,19.293,13.622l-0.161,0.451l7.425,2.347l6.901,2.181l0.147-0.413c3.282,0.616,6.531,0.936,9.712,0.936
	c26.215,0,47.544-21.329,47.544-47.544C399.37,229.62,378.041,208.289,351.826,208.289z M311.288,255.833
	c0-9.28,7.283-20.961,21.288-27.745c0.06,0.217,0.127,0.432,0.185,0.65c0.115,0.431,0.223,0.866,0.333,1.298
	c0.231,0.911,0.45,1.825,0.657,2.741c0.1,0.444,0.201,0.889,0.295,1.335c0.22,1.041,0.421,2.086,0.61,3.133
	c0.052,0.291,0.112,0.581,0.162,0.872c0.226,1.327,0.425,2.66,0.601,3.998c0.047,0.356,0.082,0.714,0.125,1.071
	c0.121,1.003,0.229,2.008,0.321,3.015c0.042,0.458,0.079,0.918,0.115,1.377c0.075,0.96,0.135,1.923,0.183,2.887
	c0.021,0.422,0.047,0.844,0.063,1.266c0.052,1.364,0.087,2.732,0.087,4.102c0,1.37-0.034,2.738-0.087,4.102
	c-0.016,0.422-0.042,0.844-0.063,1.266c-0.048,0.964-0.109,1.927-0.183,2.887c-0.036,0.459-0.073,0.919-0.115,1.377
	c-0.092,1.008-0.201,2.013-0.321,3.015c-0.043,0.356-0.079,0.715-0.125,1.071c-0.175,1.337-0.374,2.669-0.601,3.998
	c-0.05,0.291-0.11,0.581-0.162,0.872c-0.188,1.047-0.389,2.092-0.61,3.133c-0.094,0.446-0.195,0.891-0.295,1.335
	c-0.206,0.917-0.425,1.831-0.657,2.741c-0.11,0.433-0.217,0.867-0.333,1.298c-0.058,0.218-0.126,0.432-0.185,0.65
	C318.571,276.795,311.288,265.113,311.288,255.833z M351.826,288.363c-1.596,0-3.227-0.112-4.884-0.336
	c0.098-0.353,0.182-0.711,0.277-1.064c0.137-0.51,0.269-1.023,0.4-1.535c0.268-1.053,0.52-2.109,0.76-3.169
	c0.109-0.485,0.223-0.969,0.326-1.455c0.29-1.367,0.559-2.741,0.801-4.119c0.027-0.156,0.061-0.311,0.088-0.467
	c0.262-1.529,0.489-3.066,0.693-4.607c0.061-0.463,0.11-0.929,0.165-1.393c0.132-1.101,0.251-2.203,0.353-3.309
	c0.049-0.538,0.094-1.077,0.137-1.616c0.085-1.095,0.154-2.193,0.209-3.292c0.025-0.486,0.055-0.971,0.074-1.457
	c0.061-1.566,0.099-3.136,0.099-4.71s-0.039-3.144-0.099-4.71c-0.019-0.486-0.049-0.972-0.074-1.457
	c-0.056-1.099-0.124-2.197-0.21-3.292c-0.042-0.54-0.087-1.078-0.137-1.615c-0.101-1.106-0.221-2.209-0.353-3.309
	c-0.056-0.464-0.104-0.93-0.165-1.393c-0.203-1.54-0.429-3.077-0.693-4.607c-0.027-0.156-0.061-0.311-0.088-0.467
	c-0.242-1.378-0.51-2.751-0.801-4.119c-0.103-0.486-0.217-0.97-0.326-1.454c-0.239-1.06-0.491-2.116-0.76-3.169
	c-0.13-0.512-0.262-1.024-0.4-1.535c-0.095-0.354-0.179-0.711-0.277-1.064c1.657-0.224,3.287-0.336,4.884-0.336
	c17.938,0,32.53,14.592,32.53,32.53S369.763,288.363,351.826,288.363z"/>
<path d="M154.921,227.412c-5.269-5.58-11.952-10.274-19.293-13.622l0.161-0.451l-7.425-2.347l-6.901-2.181l-0.147,0.413
	c-3.282-0.616-6.531-0.936-9.712-0.936c-26.215,0-47.544,21.329-47.544,47.544s21.329,47.544,47.544,47.544
	c3.182,0,6.43-0.32,9.712-0.936l0.147,0.413l6.901-2.181l7.425-2.347l-0.161-0.451c7.341-3.347,14.024-8.04,19.293-13.622
	c8.003-8.477,12.234-18.304,12.234-28.421C167.155,245.714,162.924,235.889,154.921,227.412z M111.604,288.363
	c-17.938,0-32.53-14.592-32.53-32.53s14.592-32.53,32.53-32.53c1.596,0,3.227,0.112,4.884,0.336
	c-0.098,0.353-0.182,0.711-0.277,1.064c-0.137,0.51-0.269,1.023-0.4,1.535c-0.268,1.052-0.519,2.108-0.759,3.167
	c-0.109,0.486-0.223,0.971-0.327,1.458c-0.29,1.367-0.559,2.739-0.801,4.116c-0.028,0.156-0.062,0.312-0.088,0.468
	c-0.262,1.529-0.489,3.066-0.693,4.607c-0.061,0.463-0.11,0.929-0.165,1.393c-0.132,1.101-0.251,2.203-0.353,3.308
	c-0.049,0.54-0.095,1.079-0.137,1.618c-0.085,1.094-0.154,2.19-0.209,3.288c-0.025,0.486-0.055,0.973-0.074,1.46
	c-0.061,1.566-0.099,3.136-0.099,4.71c0,1.574,0.039,3.144,0.099,4.71c0.019,0.487,0.049,0.974,0.074,1.46
	c0.056,1.098,0.124,2.194,0.209,3.288c0.042,0.54,0.087,1.08,0.137,1.618c0.101,1.105,0.221,2.208,0.353,3.308
	c0.056,0.464,0.104,0.93,0.165,1.393c0.203,1.54,0.429,3.077,0.693,4.607c0.027,0.156,0.061,0.312,0.088,0.468
	c0.242,1.376,0.51,2.749,0.801,4.115c0.104,0.487,0.217,0.973,0.327,1.459c0.239,1.059,0.49,2.114,0.759,3.167
	c0.13,0.512,0.262,1.024,0.4,1.535c0.095,0.354,0.179,0.711,0.277,1.064C114.83,288.251,113.199,288.363,111.604,288.363z
	 M130.854,283.578c-0.06-0.217-0.127-0.432-0.185-0.65c-0.115-0.431-0.223-0.866-0.333-1.298c-0.231-0.911-0.45-1.825-0.657-2.741
	c-0.1-0.444-0.201-0.889-0.295-1.335c-0.22-1.041-0.421-2.086-0.61-3.133c-0.052-0.291-0.112-0.581-0.162-0.872
	c-0.226-1.327-0.425-2.66-0.601-3.998c-0.047-0.356-0.082-0.714-0.125-1.071c-0.121-1.003-0.229-2.008-0.321-3.015
	c-0.042-0.458-0.079-0.918-0.115-1.377c-0.075-0.96-0.135-1.923-0.183-2.887c-0.021-0.422-0.047-0.844-0.063-1.266
	c-0.052-1.364-0.087-2.732-0.087-4.102c0-1.37,0.034-2.738,0.087-4.102c0.016-0.422,0.042-0.844,0.063-1.266
	c0.048-0.964,0.109-1.927,0.183-2.887c0.036-0.459,0.073-0.919,0.115-1.377c0.092-1.008,0.201-2.013,0.321-3.015
	c0.043-0.356,0.079-0.715,0.125-1.071c0.175-1.337,0.374-2.669,0.601-3.998c0.05-0.291,0.11-0.581,0.162-0.872
	c0.188-1.047,0.389-2.092,0.61-3.133c0.094-0.446,0.195-0.891,0.295-1.335c0.206-0.917,0.425-1.831,0.657-2.741
	c0.11-0.433,0.217-0.867,0.333-1.298c0.058-0.218,0.126-0.432,0.185-0.65c14.005,6.783,21.288,18.464,21.288,27.745
	C152.141,265.116,144.859,276.795,130.854,283.578z"/>
<rect x="117.667" y="168.252" transform="matrix(-0.7071 -0.7071 0.7071 -0.7071 134.584 407.2652)" width="67.944" height="15.014"/>
<rect x="304.275" y="141.789" transform="matrix(-0.7071 -0.7071 0.7071 -0.7071 407.963 520.5065)" width="15.014" height="67.944"/>
<rect x="144.135" y="301.934" transform="matrix(-0.7071 -0.7071 0.7071 -0.7071 21.3475 680.655)" width="15.014" height="67.944"/>
<rect x="277.815" y="328.398" transform="matrix(-0.7071 -0.7071 0.7071 -0.7071 294.7335 793.8932)" width="67.944" height="15.014"/>
<polygon points="248.347,249.818 237.729,239.201 231.715,245.216 225.699,239.201 215.081,249.818 221.097,255.833 
	215.081,261.849 225.699,272.466 231.715,266.45 237.729,272.466 248.347,261.849 242.332,255.833 "/>
<g>
	<rect x="295.773" y="120.211" style="fill:#FFFFFF;" width="16.015" height="15.014"/>
	<rect x="151.64" y="120.211" style="fill:#FFFFFF;" width="16.015" height="15.014"/>
	<rect x="295.773" y="376.448" style="fill:#FFFFFF;" width="16.015" height="15.014"/>
	<rect x="151.64" y="376.448" style="fill:#FFFFFF;" width="16.015" height="15.014"/>
	<rect x="95.588" y="176.263" style="fill:#FFFFFF;" width="16.015" height="15.014"/>
	<rect x="95.588" y="320.396" style="fill:#FFFFFF;" width="16.015" height="15.014"/>
	<rect x="351.825" y="176.263" style="fill:#FFFFFF;" width="16.015" height="15.014"/>
	<rect x="351.825" y="320.396" style="fill:#FFFFFF;" width="16.015" height="15.014"/>
</g>
<g>
</g>
<g>
</g>
<g>
</g>
<g>
</g>
<g>
</g>
<g>
</g>
<g>
</g>
<g>
</g>
<g>
</g>
<g>
</g>
<g>
</g>
<g>
</g>
<g>
</g>
<g>
</g>
<g>
</g>
</svg>
